<svg xmlns="http://www.w3.org/2000/svg" width="302" height="61" fill="none"><g clip-path="url(#a)"><path fill="#EB5858" d="M186.125 10.688c2.083.124 3.833.229 5.25.312 1.458.042 2.667.083 3.625.125 1.083.042 2 .042 2.75 0s1.771-.146 3.062-.312a198.3 198.3 0 0 0 4.313-.563 747.47 747.47 0 0 0 6.813-1.125c-.959.958-1.709 1.833-2.25 2.625-.5.75-.896 1.396-1.188 1.938-.333.666-.562 1.229-.688 1.687-.083.417 0 1.458.25 3.125s.605 3.646 1.063 5.938c.458 2.25.958 4.666 1.5 7.25a281.16 281.16 0 0 0 1.625 7.187 355.965 355.965 0 0 0 1.438 5.688c.458 1.541.791 2.458 1 2.75.624.874 1.02 1.458 1.187 1.75.167.25.458.479.875.687.167.083.438.208.812.375.334.167.771.375 1.313.625.583.25 1.313.542 2.187.875-1.624.083-3.02.146-4.187.188-1.167 0-2.125.02-2.875.062-.875.042-1.625.083-2.25.125-.625 0-1.375.042-2.25.125a73.47 73.47 0 0 1-2.938.25c-1.166.083-2.541.167-4.124.25.833-.583 1.5-1.104 2-1.562.541-.5.958-.917 1.25-1.25.333-.417.562-.792.687-1.126.083-.374.146-.937.187-1.687.042-.667.042-1.542 0-2.625-.041-1.125-.145-2.583-.312-4.375l-16.438 1.688c-.416.708-.729 1.333-.937 1.874-.208.5-.354.938-.437 1.313-.126.458-.167.833-.126 1.125.084.333.23.73.438 1.188.208.416.5.916.875 1.5.417.541 1.021 1.187 1.813 1.937a79.752 79.752 0 0 0-3.188-.062c-1.083 0-2.083.02-3 .062-1.083.042-2.146.083-3.188.125a161.3 161.3 0 0 0-3.562.188c-1.125.083-2.438.187-3.938.312a120.18 120.18 0 0 0-4.937.375c1.083-.5 2-1 2.75-1.5a21 21 0 0 0 1.875-1.5c.583-.5 1.083-.98 1.5-1.437.292-.417.875-1.376 1.75-2.876a172.206 172.206 0 0 0 2.938-5.437 316.507 316.507 0 0 0 3.5-6.687 203.443 203.443 0 0 0 3.374-6.688c1-2.125 1.813-3.958 2.438-5.5.625-1.542.938-2.542.938-3-.084-.542-.292-1.146-.626-1.812-.291-.584-.75-1.25-1.374-2-.584-.75-1.438-1.584-2.563-2.5ZM205.5 35.375a138.1 138.1 0 0 0-.688-3.75 208.13 208.13 0 0 1-.5-2.687 34.963 34.963 0 0 1-.374-2.188 73.76 73.76 0 0 1-.438-2.25c-.167-.792-.375-1.77-.625-2.937a163.967 163.967 0 0 0-.813-4.313c-2.374 4.75-4.229 8.438-5.562 11.063A495.907 495.907 0 0 0 193.688 34c-.709 1.417-1.105 2.25-1.188 2.5l13-1.125ZM215.562 8.25c1.584.375 3 .667 4.25.875 1.292.167 2.376.292 3.25.375 1.042.125 1.959.167 2.75.125 1-.042 2.25-.187 3.75-.437s3.084-.5 4.75-.75a107.18 107.18 0 0 1 4.938-.626c1.625-.166 3.042-.187 4.25-.062 1.208.125 2.479.417 3.812.875 1.334.417 2.584 1 3.75 1.75a11.337 11.337 0 0 1 3 2.625 7.202 7.202 0 0 1 1.626 3.625c.208 1.333.083 2.77-.376 4.313-.458 1.5-1.187 2.979-2.187 4.437-1 1.417-2.25 2.73-3.75 3.938a19.986 19.986 0 0 1-5 2.937 26.37 26.37 0 0 1-4.75 1.25c-1.458.25-3.167.417-5.125.5-1.917.042-3.958-.167-6.125-.625-.292 1.208-.458 2.333-.5 3.375 0 1 .042 1.896.125 2.688.125.916.292 1.75.5 2.5.25.75.562 1.624.938 2.624.333.834.708 1.855 1.124 3.063.459 1.167 1 2.48 1.626 3.938-.75 0-1.48.02-2.188.062-.708 0-1.354.02-1.938.063-.666.041-1.291.083-1.874.124-.667.042-1.417.126-2.25.25a78.52 78.52 0 0 0-2.688.376 133.5 133.5 0 0 0-3.562.624c.874-1.25 1.562-2.395 2.062-3.437.542-1.083.938-2.02 1.188-2.812.291-.917.479-1.75.562-2.5.042-.626.042-1.73 0-3.313 0-1.583-.021-3.417-.062-5.5-.042-2.083-.105-4.27-.188-6.562a251.142 251.142 0 0 0-.312-6.438 102.844 102.844 0 0 0-.438-5.25c-.125-1.458-.25-2.417-.375-2.875-.167-.542-.458-1.125-.875-1.75-.333-.542-.812-1.167-1.438-1.875-.583-.75-1.333-1.583-2.25-2.5ZM228.5 20.563a13.09 13.09 0 0 0-.062 1.312c0 .875.062 2 .187 3.375.292.708.646 1.292 1.063 1.75a5.56 5.56 0 0 0 1.437 1.063 6.1 6.1 0 0 0 1.625.5c.542.083 1.083.125 1.625.125 1.25-.042 2.563-.334 3.937-.875 1.834-.792 3.126-1.917 3.876-3.375.75-1.459 1.145-2.959 1.187-4.5.042-1.542-.229-2.959-.813-4.25-.541-1.292-1.208-2.167-2-2.626-.666-.291-1.52-.416-2.562-.374-.917.041-2.062.27-3.438.687-1.374.417-3.062 1.167-5.062 2.25a35.19 35.19 0 0 0-.5 2 50.454 50.454 0 0 0-.312 1.563c-.084.5-.146.958-.188 1.375ZM252.875 8.25c1.583.375 3 .667 4.25.875a101 101 0 0 0 3.25.375c1.042.125 1.958.167 2.75.125 1-.042 2.25-.187 3.75-.437s3.083-.5 4.75-.75a106.84 106.84 0 0 1 4.937-.626c1.626-.166 3.042-.187 4.25-.062 1.209.125 2.48.417 3.813.875 1.333.417 2.583 1 3.75 1.75a11.337 11.337 0 0 1 3 2.625A7.2 7.2 0 0 1 293 16.625c.208 1.333.083 2.77-.375 4.313-.458 1.5-1.187 2.979-2.187 4.437-1 1.417-2.25 2.73-3.75 3.938a19.986 19.986 0 0 1-5 2.937 26.392 26.392 0 0 1-4.75 1.25c-1.459.25-3.167.417-5.126.5-1.916.042-3.958-.167-6.124-.625-.292 1.208-.459 2.333-.5 3.375 0 1 .041 1.896.124 2.688.126.916.292 1.75.5 2.5.25.75.563 1.624.938 2.624a69.79 69.79 0 0 1 1.125 3.063c.458 1.167 1 2.48 1.625 3.938-.75 0-1.479.02-2.188.062-.708 0-1.354.02-1.937.063a212.1 212.1 0 0 0-1.875.124c-.667.042-1.417.126-2.25.25-.708.084-1.604.209-2.688.376a137.5 137.5 0 0 0-3.562.624c.875-1.25 1.562-2.395 2.062-3.437.542-1.083.938-2.02 1.188-2.812.292-.917.479-1.75.562-2.5.042-.626.042-1.73 0-3.313 0-1.583-.02-3.417-.062-5.5-.042-2.083-.104-4.27-.188-6.562a246.669 246.669 0 0 0-.312-6.438 101.71 101.71 0 0 0-.438-5.25c-.124-1.458-.25-2.417-.374-2.875-.167-.542-.459-1.125-.876-1.75-.333-.542-.812-1.167-1.437-1.875-.583-.75-1.333-1.583-2.25-2.5Zm12.937 12.313a13.41 13.41 0 0 0-.062 1.312c0 .875.062 2 .188 3.375.291.708.645 1.292 1.062 1.75.458.458.938.813 1.438 1.063.541.25 1.083.416 1.624.5a10.69 10.69 0 0 0 1.626.125c1.25-.042 2.562-.334 3.937-.875 1.833-.792 3.125-1.917 3.875-3.375.75-1.459 1.146-2.959 1.188-4.5.041-1.542-.23-2.959-.813-4.25-.542-1.292-1.208-2.167-2-2.626-.667-.291-1.521-.416-2.563-.374-.916.041-2.062.27-3.437.687-1.375.417-3.063 1.167-5.063 2.25-.208.75-.374 1.417-.5 2a53.6 53.6 0 0 0-.312 1.563c-.083.5-.146.958-.188 1.375Z"/><path fill="#008BB5" d="M5.063 8.313c1.333.333 2.604.583 3.812.75 1.208.166 2.27.291 3.188.374 1.083.126 2.083.167 3 .126 1.166 0 2.624-.105 4.374-.313 1.792-.208 3.625-.396 5.5-.562a62.563 62.563 0 0 1 5.375-.376c1.75-.083 3.167.021 4.25.313a15.88 15.88 0 0 1 3.313 1.188 13.04 13.04 0 0 1 3.188 1.937 9.764 9.764 0 0 1 2.374 2.688c.626 1 .98 2.145 1.063 3.437a10.69 10.69 0 0 1-1.125 4.563c-.583 1.208-1.562 2.458-2.937 3.75-1.376 1.25-3.355 2.208-5.938 2.875 1.292.166 2.396.458 3.313.875.958.375 1.77.833 2.437 1.375.708.5 1.27 1.062 1.688 1.687.458.625.812 1.25 1.062 1.875.625 1.458.917 3.083.875 4.875-.25 2.333-.73 4.188-1.437 5.563C41.77 46.687 41 47.75 40.125 48.5c-.875.75-1.77 1.27-2.687 1.563-.917.291-1.75.52-2.5.687-.75.167-1.667.25-2.75.25-1.084 0-2.25-.02-3.5-.062a102.78 102.78 0 0 0-3.75-.188 27.22 27.22 0 0 0-3.688 0c-.958.083-2.125.167-3.5.25l-4.375.313c-1.75.083-3.792.187-6.125.312A4.801 4.801 0 0 0 8.375 50.5c.333-.458.604-.854.813-1.187.208-.417.395-.813.562-1.188.125-.333.23-1.25.313-2.75.083-1.5.145-3.292.187-5.375.042-2.125.063-4.396.063-6.812.041-2.459.02-4.813-.063-7.063a115.776 115.776 0 0 0-.25-6.062c-.083-1.792-.208-3.084-.375-3.875a19.34 19.34 0 0 0-1-2.688c-.333-.792-.812-1.646-1.437-2.562a15.447 15.447 0 0 0-2.125-2.626Zm13.187 6.374c0 .167.02.73.063 1.688.041.833.083 2.125.125 3.875.083 1.708.187 4.146.312 7.313 1.042.458 2.063.708 3.063.75 1 0 1.895-.042 2.687-.125a13.406 13.406 0 0 0 2.625-.625 5.33 5.33 0 0 0 2.625-2.25c.667-1.042 1.104-2.125 1.313-3.25.25-1.167.312-2.25.187-3.25-.125-1.042-.396-1.792-.812-2.25-.792-.709-1.771-1.292-2.938-1.75-1-.376-2.27-.626-3.812-.75-1.5-.167-3.313.041-5.438.624Zm-.312 29.626c1.541.791 2.895 1.312 4.062 1.562 1.167.25 2.146.375 2.938.375.916 0 1.708-.125 2.375-.375a10.931 10.931 0 0 0 2.312-1.5c.792-.667 1.375-1.437 1.75-2.312.417-.917.583-1.917.5-3-.083-1.126-.562-2.355-1.437-3.688a8.428 8.428 0 0 0-2.875-2.25c-1-.458-2.271-.75-3.813-.875-1.5-.125-3.354.23-5.562 1.063l-.25 11ZM47.063 7.688c1.208.208 2.27.354 3.187.437.958.083 1.75.146 2.375.188.75.041 1.396.062 1.938.062.541 0 1.312-.042 2.312-.125.833-.083 1.917-.187 3.25-.312a96.783 96.783 0 0 0 5.063-.625c-.584.166-1.126.645-1.626 1.437-.458.75-.874 1.563-1.25 2.438a23.693 23.693 0 0 0-1.187 3.437A211.484 211.484 0 0 0 60 19.25a218.99 218.99 0 0 0-1.25 6.375 94.419 94.419 0 0 0-.875 7c-.208 2.333-.25 4.48-.125 6.438.167 1.958.563 3.583 1.188 4.874.624 1.25 1.583 1.917 2.874 2 1.959.167 3.584.188 4.876.063 1.333-.167 2.416-.396 3.25-.687.833-.292 1.479-.626 1.937-1 .458-.417.813-.813 1.063-1.188.666-.958 1.354-2.187 2.062-3.687a71.563 71.563 0 0 0 1.875-4.313 137.677 137.677 0 0 0 1.438-3.5c.374-.958.562-1.417.562-1.375 0 .083-.02.563-.062 1.438 0 .833-.021 1.854-.063 3.062 0 1.167-.02 2.396-.062 3.688 0 1.291-.021 2.395-.063 3.312-.042.75-.083 1.583-.125 2.5-.042.792-.083 1.73-.125 2.813a55.9 55.9 0 0 1-.125 3.562c-1.75-.125-3.417-.208-5-.25-1.583-.042-2.98-.062-4.187-.062-1.417 0-2.73.02-3.938.062-1.292.042-2.792.104-4.5.188l-5.437.312a369.56 369.56 0 0 0-7.5.375 14.73 14.73 0 0 0 .812-1.625c.25-.5.438-.917.563-1.25.166-.417.27-.77.312-1.062.25-1.334.458-3.021.625-5.063a150.6 150.6 0 0 0 .375-6.625c.125-2.333.188-4.708.188-7.125.041-2.458.041-4.73 0-6.812a90.894 90.894 0 0 0-.25-5.438c-.084-1.542-.209-2.604-.376-3.187a19.488 19.488 0 0 0-.75-2 11.94 11.94 0 0 0-.937-1.75 6.81 6.81 0 0 0-1.187-1.626Zm53.999-1.813c2.25.083 4.521.5 6.813 1.25 2.333.708 4.479 1.875 6.437 3.5 1.959 1.583 3.626 3.646 5 6.188 1.376 2.5 2.23 5.562 2.563 9.187.292 2.958-.083 5.896-1.125 8.813a29.55 29.55 0 0 1-4.188 7.937c-1.791 2.417-3.854 4.48-6.187 6.188-2.333 1.666-4.667 2.77-7 3.312-1.417.333-2.979.375-4.687.125-1.667-.292-3.376-.812-5.126-1.562a30.464 30.464 0 0 1-5.062-3 27.716 27.716 0 0 1-4.437-4.126 25.949 25.949 0 0 1-3.376-5.124 17.454 17.454 0 0 1-1.624-5.75c-.209-1.667-.23-3.5-.063-5.5a33.901 33.901 0 0 1 1.188-6.063 28.18 28.18 0 0 1 2.562-5.875 18.828 18.828 0 0 1 4.25-5C88.708 8.917 90.708 7.792 93 7c2.333-.833 5.02-1.208 8.062-1.125ZM89.875 31.188c-.583 4.458-.167 8.041 1.25 10.75 1.458 2.708 3.646 4.354 6.563 4.937 1.416.292 2.77 0 4.062-.875 1.333-.917 2.542-2.23 3.625-3.937 1.083-1.709 2.021-3.709 2.813-6a40.392 40.392 0 0 0 1.75-7.188c.374-2.5.395-4.75.062-6.75-.292-2.042-.812-3.77-1.562-5.187-.75-1.459-1.667-2.584-2.75-3.375-1.042-.792-2.126-1.23-3.25-1.313-1.959-.125-3.667.396-5.126 1.563-1.458 1.124-2.687 2.604-3.687 4.437-1 1.833-1.812 3.896-2.437 6.188a58.345 58.345 0 0 0-1.313 6.75Zm57.813-23.313c2.666-.042 4.854.438 6.562 1.438 1.75 1 3.167 2.187 4.25 3.562 1.083 1.375 1.917 2.77 2.5 4.188.583 1.375 1.042 2.458 1.375 3.25.083.208.25.479.5.812.208.292.5.646.875 1.063.417.375.938.812 1.562 1.312-1.291.042-2.437.083-3.437.125-1 0-1.854.02-2.563.063a99.098 99.098 0 0 0-4.437.313c-.833.082-1.854.166-3.063.249a174.95 174.95 0 0 0-4.437.375c1.042-1.25 1.854-2.354 2.437-3.312.626-1 1.084-1.875 1.376-2.625.333-.792.52-1.48.562-2.063.083-.583.062-1.083-.062-1.5-.25-.958-.896-1.646-1.938-2.062-3-.834-5.625-.167-7.875 2-2.208 2.124-3.792 5.624-4.75 10.5a258.224 258.224 0 0 0-1.313 7.562c-.374 2.583-.52 4.958-.437 7.125.083 2.125.5 3.854 1.25 5.188.75 1.333 2.042 1.958 3.875 1.874 1.792-.083 3.312-.374 4.562-.874 1.25-.542 2.25-1.167 3-1.876.75-.75 1.271-1.541 1.563-2.374.333-.876.458-1.688.375-2.438-.167-.583-.604-1.208-1.312-1.875-.626-.583-1.563-1.23-2.813-1.937-1.25-.75-3.042-1.521-5.375-2.313a209.51 209.51 0 0 1 5.438-.25 85.706 85.706 0 0 0 3.437-.25c1-.083 1.771-.146 2.313-.187a59.24 59.24 0 0 1 2.187-.126 66.077 66.077 0 0 1 3.187-.062c1.334 0 3-.02 5-.062-.75.75-1.333 1.437-1.75 2.062a34.12 34.12 0 0 1-.562.875c-.167.417-.229 1.27-.188 2.563 0 1.083.084 2.687.25 4.812.167 2.083.48 4.938.938 8.563l-8.312 1.124.374-8.437c-.958 2.292-2.166 4-3.624 5.125-1.417 1.125-2.771 1.917-4.063 2.375a13.389 13.389 0 0 1-4.813.75c-2.166-.208-4.333-.708-6.5-1.5-2.166-.792-4.083-2-5.75-3.625-1.666-1.667-2.958-3.812-3.874-6.437-.876-2.626-1.146-5.876-.813-9.75.375-3.875 1.292-7.25 2.75-10.125 1.5-2.917 3.354-5.334 5.563-7.25a22.582 22.582 0 0 1 7.437-4.313 27.58 27.58 0 0 1 8.563-1.625Z"/></g><defs><clipPath id="a"><path fill="#fff" d="M0 0h302v61H0z"/></clipPath></defs></svg>